<?xml version="1.0" standalone="no"?>
<svg version="1.1" id="downloadSvg" xmlns="http://www.w3.org/2000/svg" xmlns:xlink="http://www.w3.org/1999/xlink" x="0px" y="0px" viewBox="0 0 1200 1200" enable-background="new 0 0 1200 1200" xml:space="preserve" height="512" width="512">
<g>
	<path d="M856.227,507.723c4.877-82.13,1.067-156.042-1.489-191.352c-28.278,23.487-87.498,74.824-145.433,138.462&#10;&#9;&#9;c12.863,38.338,24.208,78.818,31.823,118.996C777.482,548.889,817.242,526.784,856.227,507.723z" style="fill: rgb(100, 255, 218);"/>
	<path d="M463.641,574.911c7.573-40.307,18.92-80.939,31.809-119.431c-58.13-63.949-117.664-115.552-146.037-139.11&#10;&#9;&#9;c-2.556,35.384-6.37,109.523-1.449,191.843C387.194,527.441,427.173,549.741,463.641,574.911z" style="fill: rgb(100, 255, 218);"/>
	<path d="M961.777,730.353c-24.914,41.521-53.248,80.746-84.763,112.261c-66.281,66.283-134.617,85.265-182.582,88.963&#10;&#9;&#9;c16.574,2.657,33.9,3.996,51.96,3.996c149.069-0.001,342.432-92.919,403.608-124.372&#10;&#9;&#9;C1116.796,794.129,1044.645,758.954,961.777,730.353z" style="fill: rgb(100, 255, 218);"/>
	<path d="M240.867,729.441C156.891,758.202,83.557,793.948,50,811.201c61.175,31.454,254.539,124.371,403.607,124.372&#10;&#9;&#9;c18.428,0,36.089-1.4,52.968-4.166c-47.841-4.106-115.123-23.516-180.399-88.793C294.431,810.869,265.913,771.3,240.867,729.441z" style="fill: rgb(100, 255, 218);"/>
	<path d="M1057.874,452.69c-54.377,17.449-203.131,69.37-312.393,146.811c3.578,24.154,5.619,48.005,5.619,71.005&#10;&#9;&#9;c0,99.208-38.879,162.799-71.493,198.674c-14.613,16.074-29.213,28.129-41.452,36.805c13.202,2.119,29.857,3.58,48.871,2.575&#10;&#9;&#9;c63.624-3.329,121.965-31.097,173.399-82.532C965.832,720.621,1036.858,518.189,1057.874,452.69z" style="fill: rgb(100, 255, 218);"/>
	<path d="M525.364,869.181c-32.614-35.875-71.493-99.467-71.493-198.674c0-22.635,1.984-46.094,5.456-69.855&#10;&#9;&#9;C349.894,522.538,199.953,470.21,145.315,452.688c21.016,65.496,92.044,267.933,197.45,373.34&#10;&#9;&#9;c51.435,51.435,109.776,79.203,173.399,82.532c19.711,1.034,36.878-0.575,50.303-2.82&#10;&#9;&#9;C554.301,897.084,539.837,885.101,525.364,869.181z" style="fill: rgb(100, 255, 218);"/>
	<path d="M662.997,852.575c42.895-47.63,64.645-108.887,64.645-182.068c0-150.037-93.581-344.682-125.156-406.08&#10;&#9;&#9;c-31.576,61.398-125.156,256.043-125.156,406.08c0,156.021,102.08,217.943,125.154,229.937&#10;&#9;&#9;C612.612,895.187,637.971,880.363,662.997,852.575z" style="fill: rgb(100, 255, 218);"/>
</g>
</svg>